<svg xmlns="http://www.w3.org/2000/svg" xmlns:svg="http://www.w3.org/2000/svg" id="svg8" width="250" height="180" version="1.1" viewBox="0 0 66.146 47.625"><defs id="defs2"><rect id="rect106" width="19.192" height="51.274" x="491.184" y="113.988"/></defs><metadata id="metadata5"/><g id="layer1" transform="translate(-340.24146,-79.159484)"><g id="g1129"><g id="g963" transform="translate(22.99116,26.318324)"><g id="g1010"><g style="font-size:15.665px;line-height:.8;font-family:sans-serif;-inkscape-font-specification:sans-serif;text-align:center;letter-spacing:0;word-spacing:0;writing-mode:lr-tb;text-anchor:middle;fill:#fff;stroke:#000;stroke-width:.264583px;stroke-linecap:butt;stroke-linejoin:miter;stroke-opacity:1" id="text102" aria-label="Tow- Boot" transform="scale(0.96598235,1.0352156)"><path id="path38" d="m 342.06885,63.995122 h -2.5534 v -2.60039 h 8.17713 v 2.60039 h -2.56906 v 8.99171 h -3.05467 z" style="font-style:normal;font-variant:normal;font-weight:900;font-stretch:normal;font-family:'Encode Sans Compressed';-inkscape-font-specification:'Encode Sans Compressed Heavy';text-align:end;text-anchor:end;fill:#fff;fill-opacity:1;stroke:none;stroke-width:.264583px"/><path id="path40" d="m 350.96655,73.159147 q -1.95812,0 -2.94502,-1.112215 -0.98689,-1.112215 -0.98689,-3.28965 0,-2.177435 0.98689,-3.273985 0.9869,-1.112215 2.94502,-1.112215 1.95813,0 2.94502,1.112215 0.9869,1.09655 0.9869,3.273985 0,2.177435 -0.9869,3.28965 -0.98689,1.112215 -2.94502,1.112215 z m 0,-2.240095 q 0.3133,0 0.50128,-0.06266 0.18798,-0.07833 0.28197,-0.3133 0.10966,-0.234975 0.14099,-0.65793 0.0313,-0.422955 0.0313,-1.12788 0,-0.704925 -0.0313,-1.12788 -0.0313,-0.422955 -0.14099,-0.642265 -0.094,-0.234975 -0.28197,-0.297635 -0.18798,-0.07833 -0.50128,-0.07833 -0.3133,0 -0.50128,0.07833 -0.18798,0.06266 -0.29763,0.297635 -0.094,0.21931 -0.12532,0.642265 -0.0313,0.422955 -0.0313,1.12788 0,0.704925 0.0313,1.12788 0.0313,0.422955 0.12532,0.65793 0.10965,0.234975 0.29763,0.3133 0.18798,0.06266 0.50128,0.06266 z" style="font-style:normal;font-variant:normal;font-weight:900;font-stretch:normal;font-family:'Encode Sans Compressed';-inkscape-font-specification:'Encode Sans Compressed Heavy';text-align:end;text-anchor:end;fill:#fff;fill-opacity:1;stroke:none;stroke-width:.264583px"/><path id="path42" d="m 355.36836,64.590392 v -0.06266 h 2.67872 l 0.48561,4.621175 0.094,0.861575 h 0.20365 l 0.10965,-0.861575 0.73626,-4.621175 h 2.86669 l 0.73626,4.621175 0.10965,0.861575 h 0.20365 l 0.094,-0.861575 0.48561,-4.621175 h 2.67872 v 0.06266 l -1.50384,8.39644 h -3.35231 l -0.70493,-4.32354 -0.0783,-0.861575 h -0.20365 l -0.0783,0.861575 -0.70493,4.32354 h -3.35231 z" style="font-style:normal;font-variant:normal;font-weight:900;font-stretch:normal;font-family:'Encode Sans Compressed';-inkscape-font-specification:'Encode Sans Compressed Heavy';text-align:end;text-anchor:end;fill:#fff;fill-opacity:1;stroke:none;stroke-width:.264583px"/><path id="path44" d="m 367.69671,67.519747 h 5.29477 v 2.16177 h -5.29477 z" style="font-style:normal;font-variant:normal;font-weight:900;font-stretch:normal;font-family:'Encode Sans Compressed';-inkscape-font-specification:'Encode Sans Compressed Heavy';text-align:end;text-anchor:end;fill:#fff;fill-opacity:1;stroke:none;stroke-width:.264583px"/><path id="path46" d="m 344.7632,86.681713 q -0.75192,0 -1.53517,-0.06266 -0.76758,-0.04699 -1.5195,-0.172315 v -11.43545 q 1.98945,-0.234975 3.30531,-0.234975 2.49074,0 3.61862,0.798915 1.14354,0.798915 1.14354,2.53773 0,1.94246 -1.66049,2.41241 v 0.06266 q 1.94246,0.43862 1.94246,2.72571 0,3.367975 -5.29477,3.367975 z m 0.53261,-2.31842 q 0.79892,0 1.20621,-0.3133 0.42295,-0.3133 0.42295,-0.90857 0,-0.736255 -0.36029,-1.018225 -0.3603,-0.297635 -1.3002,-0.297635 h -0.76758 v 2.47507 q 0.14098,0.03133 0.3133,0.04699 0.17231,0.01566 0.48561,0.01566 z m -0.047,-4.73083 q 0.78325,0 1.08088,-0.28197 0.3133,-0.28197 0.3133,-1.03389 0,-1.22187 -1.28453,-1.22187 -0.17231,0 -0.39162,0.03133 -0.20365,0.01566 -0.46995,0.04699 v 2.459405 z" style="font-style:normal;font-variant:normal;font-weight:900;font-stretch:normal;font-family:'Encode Sans Compressed';-inkscape-font-specification:'Encode Sans Compressed Heavy';text-align:end;text-anchor:end;fill:#fff;fill-opacity:1;stroke:none;stroke-width:.264583px"/><path id="path48" d="m 354.69481,86.697378 q -1.95813,0 -2.94502,-1.112215 -0.9869,-1.112215 -0.9869,-3.28965 0,-2.177435 0.9869,-3.273985 0.98689,-1.112215 2.94502,-1.112215 1.95812,0 2.94502,1.112215 0.98689,1.09655 0.98689,3.273985 0,2.177435 -0.98689,3.28965 -0.9869,1.112215 -2.94502,1.112215 z m 0,-2.240095 q 0.3133,0 0.50128,-0.06266 0.18798,-0.07832 0.28197,-0.3133 0.10965,-0.234975 0.14098,-0.65793 0.0313,-0.422955 0.0313,-1.12788 0,-0.704925 -0.0313,-1.12788 -0.0313,-0.422955 -0.14098,-0.642265 -0.094,-0.234975 -0.28197,-0.297635 -0.18798,-0.07833 -0.50128,-0.07833 -0.3133,0 -0.50128,0.07833 -0.18798,0.06266 -0.29764,0.297635 -0.094,0.21931 -0.12532,0.642265 -0.0313,0.422955 -0.0313,1.12788 0,0.704925 0.0313,1.12788 0.0313,0.422955 0.12532,0.65793 0.10966,0.234975 0.29764,0.3133 0.18798,0.06266 0.50128,0.06266 z" style="font-style:normal;font-variant:normal;font-weight:900;font-stretch:normal;font-family:'Encode Sans Compressed';-inkscape-font-specification:'Encode Sans Compressed Heavy';text-align:end;text-anchor:end;fill:#fff;fill-opacity:1;stroke:none;stroke-width:.264583px"/><path id="path50" d="m 363.2792,86.697378 q -1.95812,0 -2.94502,-1.112215 -0.98689,-1.112215 -0.98689,-3.28965 0,-2.177435 0.98689,-3.273985 0.9869,-1.112215 2.94502,-1.112215 1.95813,0 2.94502,1.112215 0.9869,1.09655 0.9869,3.273985 0,2.177435 -0.9869,3.28965 -0.98689,1.112215 -2.94502,1.112215 z m 0,-2.240095 q 0.3133,0 0.50128,-0.06266 0.18798,-0.07832 0.28197,-0.3133 0.10966,-0.234975 0.14099,-0.65793 0.0313,-0.422955 0.0313,-1.12788 0,-0.704925 -0.0313,-1.12788 -0.0313,-0.422955 -0.14099,-0.642265 -0.094,-0.234975 -0.28197,-0.297635 -0.18798,-0.07833 -0.50128,-0.07833 -0.3133,0 -0.50128,0.07833 -0.18798,0.06266 -0.29763,0.297635 -0.094,0.21931 -0.12532,0.642265 -0.0313,0.422955 -0.0313,1.12788 0,0.704925 0.0313,1.12788 0.0313,0.422955 0.12532,0.65793 0.10965,0.234975 0.29763,0.3133 0.18798,0.06266 0.50128,0.06266 z" style="font-style:normal;font-variant:normal;font-weight:900;font-stretch:normal;font-family:'Encode Sans Compressed';-inkscape-font-specification:'Encode Sans Compressed Heavy';text-align:end;text-anchor:end;fill:#fff;fill-opacity:1;stroke:none;stroke-width:.264583px"/><path id="path52" d="m 371.78527,86.634718 q -1.44118,0 -2.1931,-0.6266 -0.73625,-0.642265 -0.73625,-1.84847 v -3.618615 h -1.14355 v -2.47507 h 1.31586 l 0.39163,-2.53773 2.39674,-0.28197 v 2.8197 h 1.45685 v 2.47507 h -1.44118 v 2.85103 q 0,0.610935 0.17231,0.84591 0.18798,0.21931 0.56394,0.21931 0.3133,0 0.73626,-0.109655 v 2.114775 q -0.65793,0.172315 -1.51951,0.172315 z" style="font-style:normal;font-variant:normal;font-weight:900;font-stretch:normal;font-family:'Encode Sans Compressed';-inkscape-font-specification:'Encode Sans Compressed Heavy';text-align:end;text-anchor:end;fill:#fff;fill-opacity:1;stroke:none;stroke-width:.264583px"/></g><rect style="color:#000;overflow:visible;fill:#fff;fill-opacity:1;stroke:none;stroke-width:.764996;stroke-linecap:round;stroke-linejoin:round" id="rect941" width="1.323" height="21.167" x="371.49" y="65.806"/><rect id="rect941-3" width="10.583" height="11.266" x="360.907" y="71.362" style="color:#000;overflow:visible;fill:#fff;fill-opacity:0;stroke:none;stroke-width:.764996;stroke-linecap:round;stroke-linejoin:round"/></g><rect id="rect980-5" width="10.583" height="10.583" x="89.883" y="-352.969" transform="rotate(90)" style="color:#000;overflow:visible;fill:#fff;fill-opacity:0;stroke:none;stroke-width:.764995;stroke-linecap:round;stroke-linejoin:round"/><path style="color:#000;overflow:visible;fill:#fff;fill-opacity:0;stroke:none;stroke-width:.764995;stroke-linecap:round;stroke-linejoin:round" id="rect941-3-6" d="m 372.8128,71.361965 h 10.58334 V 81.945298 H 372.8128 Z"/><rect style="color:#000;overflow:visible;fill:#fff;fill-opacity:0;stroke:none;stroke-width:.764995;stroke-linecap:round;stroke-linejoin:round" id="rect980-5-3" width="10.583" height="10.583" x="52.841" y="-352.969" transform="rotate(90)"/><path id="rect941-3-6-5" d="m 317.2503,71.361965 h 10.58333 V 81.945298 H 317.2503 Z" style="color:#000;overflow:visible;fill:#fff;fill-opacity:0;stroke:none;stroke-width:.764995;stroke-linecap:round;stroke-linejoin:round"/></g></g><text id="text835-2" x="350.458" y="137.121" xml:space="preserve" style="font-style:normal;font-weight:400;font-size:5.6623px;line-height:1;font-family:sans-serif;letter-spacing:0;word-spacing:0;fill:#000;fill-opacity:1;stroke:none;stroke-width:.264583"><tspan style="font-style:italic;font-variant:normal;font-weight:200;font-stretch:normal;font-size:5.6623px;font-family:'Encode Sans Compressed';-inkscape-font-specification:'Encode Sans Compressed Ultra-Light';text-align:end;text-anchor:end;fill:#fff;stroke-width:.264583" id="tspan863" x="350.458" y="137.121">Powered by:</tspan></text></g></svg>